<?xml version="1.0" encoding="UTF-8" standalone="no"?>
<!DOCTYPE svg PUBLIC "-//W3C//DTD SVG 1.1//EN"
 "http://www.w3.org/Graphics/SVG/1.1/DTD/svg11.dtd">
<!-- Generated by graphviz version 14.0.1 (20251006.0113)
 -->
<!-- Title: BackendArchitecture Pages: 1 -->
<svg width="1950pt" height="961pt"
 viewBox="0.00 0.00 1950.00 961.00" xmlns="http://www.w3.org/2000/svg" xmlns:xlink="http://www.w3.org/1999/xlink">
<g id="graph0" class="graph" transform="scale(1 1) rotate(0) translate(32.4 928.62)">
<title>BackendArchitecture</title>
<polygon fill="#080a09" stroke="none" points="-32.4,32.4 -32.4,-928.62 1917.25,-928.62 1917.25,32.4 -32.4,32.4"/>
<text xml:space="preserve" text-anchor="start" x="8" y="-866.62" font-family="Arial" font-weight="bold" font-size="28.00" fill="#f5f2ea">Backend architecture</text>
<g id="clust1" class="cluster">
<title>cluster_backend</title>
<path fill="#121412" stroke="#426c84" stroke-width="1.1" d="M479.47,-282.75C479.47,-282.75 1475.26,-282.75 1475.26,-282.75 1481.26,-282.75 1487.26,-288.75 1487.26,-294.75 1487.26,-294.75 1487.26,-478.75 1487.26,-478.75 1487.26,-484.75 1481.26,-490.75 1475.26,-490.75 1475.26,-490.75 479.47,-490.75 479.47,-490.75 473.47,-490.75 467.47,-484.75 467.47,-478.75 467.47,-478.75 467.47,-294.75 467.47,-294.75 467.47,-288.75 473.47,-282.75 479.47,-282.75"/>
<text xml:space="preserve" text-anchor="middle" x="541.09" y="-476.3" font-family="Arial" font-size="11.00" fill="#65a9d0">Node control plane process</text>
</g>
<!-- cli&#45;&gt;dashboard -->
<!-- cli&#45;&gt;api -->
<g id="edge1" class="edge">
<title>cli&#45;&gt;api</title>
<path fill="none" stroke="#d8aa35" stroke-width="1.35" d="M246.4,-482.44C318.53,-461.45 418.98,-432.22 490.51,-411.41"/>
<polygon fill="#d8aa35" stroke="#d8aa35" stroke-width="1.35" points="490.92,-413.91 497.13,-409.48 489.51,-409.07 490.92,-413.91"/>
<text xml:space="preserve" text-anchor="middle" x="397.72" y="-457.11" font-family="Arial" font-size="10.00" fill="#d8aa35">Deploy and device API</text>
</g>
<!-- dashboard&#45;&gt;agents -->
<!-- dashboard&#45;&gt;api -->
<g id="edge2" class="edge">
<title>dashboard&#45;&gt;api</title>
<path fill="none" stroke="#d8aa35" stroke-width="1.35" d="M310.08,-385.75C365.28,-385.75 426.11,-385.75 475.91,-385.75"/>
<polygon fill="#d8aa35" stroke="#d8aa35" stroke-width="1.35" points="475.83,-388.27 483.03,-385.75 475.83,-383.23 475.83,-388.27"/>
<text xml:space="preserve" text-anchor="middle" x="397.72" y="-388.25" font-family="Arial" font-size="10.00" fill="#d8aa35">Session authenticated API</text>
</g>
<!-- agents&#45;&gt;api -->
<g id="edge3" class="edge">
<title>agents&#45;&gt;api</title>
<path fill="none" stroke="#d8aa35" stroke-width="1.35" d="M243.57,-288.24C315.83,-309.26 417.91,-338.97 490.38,-360.05"/>
<polygon fill="#d8aa35" stroke="#d8aa35" stroke-width="1.35" points="489.48,-362.42 497.1,-362.01 490.89,-357.58 489.48,-362.42"/>
<text xml:space="preserve" text-anchor="middle" x="397.72" y="-351.9" font-family="Arial" font-size="10.00" fill="#d8aa35">Public documentation</text>
</g>
<!-- agents&#45;&gt;legend -->
<!-- api&#45;&gt;deploy -->
<g id="edge4" class="edge">
<title>api&#45;&gt;deploy</title>
<path fill="none" stroke="#b56baa" stroke-width="1.35" d="M674.51,-395.83C732.86,-402.1 808.19,-410.2 869.55,-416.79"/>
<polygon fill="#b56baa" stroke="#b56baa" stroke-width="1.35" points="869.04,-419.27 876.47,-417.53 869.58,-414.26 869.04,-419.27"/>
<text xml:space="preserve" text-anchor="middle" x="772.52" y="-416.11" font-family="Arial" font-size="10.00" fill="#b56baa">User scoped Port</text>
</g>
<!-- api&#45;&gt;auth -->
<g id="edge5" class="edge">
<title>api&#45;&gt;auth</title>
<path fill="none" stroke="#b56baa" stroke-width="1.35" d="M674.51,-371.21C730.32,-362.57 801.67,-351.51 861.47,-342.25"/>
<polygon fill="#b56baa" stroke="#b56baa" stroke-width="1.35" points="861.84,-344.74 868.57,-341.15 861.07,-339.76 861.84,-344.74"/>
<text xml:space="preserve" text-anchor="middle" x="772.52" y="-368.2" font-family="Arial" font-size="10.00" fill="#b56baa">Browser and management calls</text>
</g>
<!-- deploy&#45;&gt;auth -->
<!-- deploy&#45;&gt;activator -->
<g id="edge6" class="edge">
<title>deploy&#45;&gt;activator</title>
<path fill="none" stroke="#b56baa" stroke-width="1.35" d="M1067.04,-405.58C1127.49,-388.94 1208.97,-366.51 1271.33,-349.34"/>
<polygon fill="#b56baa" stroke="#b56baa" stroke-width="1.35" points="1271.76,-351.84 1278.03,-347.5 1270.42,-346.98 1271.76,-351.84"/>
<text xml:space="preserve" text-anchor="middle" x="1176.95" y="-391.24" font-family="Arial" font-size="10.00" fill="#b56baa">Content complete deploy</text>
</g>
<!-- deploy&#45;&gt;postgres -->
<g id="edge8" class="edge">
<title>deploy&#45;&gt;postgres</title>
<path fill="none" stroke="#d7d4cc" stroke-width="1.35" d="M994.53,-451.72C1028.11,-517.82 1122.58,-703.75 1122.58,-703.75 1122.58,-703.75 1472.81,-770.27 1656.05,-805.07"/>
<polygon fill="#d7d4cc" stroke="#d7d4cc" stroke-width="1.35" points="1655.36,-807.51 1662.91,-806.37 1656.3,-802.55 1655.36,-807.51"/>
<text xml:space="preserve" text-anchor="middle" x="1365.29" y="-775.36" font-family="Arial" font-size="10.00" fill="#cac7bf">Apps and deploy state</text>
</g>
<!-- deploy&#45;&gt;blobs -->
<g id="edge9" class="edge">
<title>deploy&#45;&gt;blobs</title>
<path fill="none" stroke="#d7d4cc" stroke-width="1.35" d="M995.76,-451.82C1030.34,-513.71 1122.58,-678.75 1122.58,-678.75 1122.58,-678.75 1498.99,-693.99 1675.53,-701.13"/>
<polygon fill="#d7d4cc" stroke="#d7d4cc" stroke-width="1.35" points="1675.21,-703.64 1682.51,-701.41 1675.42,-698.6 1675.21,-703.64"/>
<text xml:space="preserve" text-anchor="middle" x="1365.29" y="-695.98" font-family="Arial" font-size="10.00" fill="#cac7bf">Missing and uploaded content</text>
</g>
<!-- auth&#45;&gt;postgres -->
<g id="edge10" class="edge">
<title>auth&#45;&gt;postgres</title>
<path fill="none" stroke="#d7d4cc" stroke-width="1.35" d="M1020.62,-346.81C1052.36,-366.19 1092.58,-390.75 1092.58,-390.75 1092.58,-390.75 1122.58,-498.75 1122.58,-498.75 1122.58,-498.75 1487.26,-665.75 1487.26,-665.75 1487.26,-665.75 1620.42,-742.48 1702.31,-789.67"/>
<polygon fill="#d7d4cc" stroke="#d7d4cc" stroke-width="1.35" points="1700.8,-791.71 1708.3,-793.12 1703.32,-787.34 1700.8,-791.71"/>
<text xml:space="preserve" text-anchor="middle" x="1365.29" y="-668.25" font-family="Arial" font-size="10.00" fill="#cac7bf">Users, grants, sessions, and secrets</text>
</g>
<!-- auth&#45;&gt;kms -->
<g id="edge11" class="edge">
<title>auth&#45;&gt;kms</title>
<path fill="none" stroke="#d7d4cc" stroke-width="1.35" d="M1020.62,-346.81C1052.36,-366.19 1092.58,-390.75 1092.58,-390.75 1092.58,-390.75 1122.58,-453.75 1122.58,-453.75 1122.58,-453.75 1261.33,-509.75 1261.33,-509.75 1261.33,-509.75 1498.02,-544.53 1646.87,-566.4"/>
<polygon fill="#d7d4cc" stroke="#d7d4cc" stroke-width="1.35" points="1646.14,-568.84 1653.63,-567.4 1646.88,-563.86 1646.14,-568.84"/>
<text xml:space="preserve" text-anchor="middle" x="1365.29" y="-544.33" font-family="Arial" font-size="10.00" fill="#cac7bf">Seal and reveal values</text>
</g>
<!-- auth&#45;&gt;oidc -->
<g id="edge12" class="edge">
<title>auth&#45;&gt;oidc</title>
<path fill="none" stroke="#d7d4cc" stroke-width="1.35" d="M1029.11,-351.55C1069.79,-376.01 1122.58,-407.75 1122.58,-407.75 1122.58,-407.75 1261.33,-466.75 1261.33,-466.75 1261.33,-466.75 1499.26,-491.75 1499.26,-491.75 1499.26,-491.75 1617.01,-491.75 1617.01,-491.75 1617.01,-491.75 1652.53,-485.75 1688.75,-479.62"/>
<polygon fill="#d7d4cc" stroke="#d7d4cc" stroke-width="1.35" points="1030.63,-349.53 1023.16,-347.98 1028.03,-353.85 1030.63,-349.53"/>
<polygon fill="#d7d4cc" stroke="#d7d4cc" stroke-width="1.35" points="1688.77,-482.18 1695.45,-478.49 1687.93,-477.21 1688.77,-482.18"/>
<text xml:space="preserve" text-anchor="middle" x="1365.29" y="-492.84" font-family="Arial" font-size="10.00" fill="#cac7bf">Authorization code flow</text>
</g>
<!-- activator&#45;&gt;runtime -->
<g id="edge7" class="edge">
<title>activator&#45;&gt;runtime</title>
<path fill="none" stroke="#b56baa" stroke-width="1.35" d="M1365.29,-346.79C1365.29,-361.43 1365.29,-380.58 1365.29,-396.69"/>
<polygon fill="#b56baa" stroke="#b56baa" stroke-width="1.35" points="1362.77,-396.52 1365.29,-403.72 1367.81,-396.52 1362.77,-396.52"/>
<text xml:space="preserve" text-anchor="middle" x="1356.29" y="-372.75" font-family="Arial" font-size="10.00" fill="#b56baa">Prepare, activate, or delete</text>
</g>
<!-- runtime&#45;&gt;blobs -->
<g id="edge13" class="edge">
<title>runtime&#45;&gt;blobs</title>
<path fill="none" stroke="#d7d4cc" stroke-width="1.35" d="M1427.13,-451.88C1457.25,-463.34 1487.26,-474.75 1487.26,-474.75 1487.26,-474.75 1647.01,-629.75 1647.01,-629.75 1647.01,-629.75 1677.62,-649.22 1707.66,-668.32"/>
<polygon fill="#d7d4cc" stroke="#d7d4cc" stroke-width="1.35" points="1706.11,-670.33 1713.54,-672.06 1708.81,-666.07 1706.11,-670.33"/>
<text xml:space="preserve" text-anchor="middle" x="1558.13" y="-602.6" font-family="Arial" font-size="10.00" fill="#cac7bf">Read build context</text>
</g>
<!-- runtime&#45;&gt;kms -->
<g id="edge14" class="edge">
<title>runtime&#45;&gt;kms</title>
<path fill="none" stroke="#d7d4cc" stroke-width="1.35" d="M1459.72,-405.56C1481.9,-400.06 1499.26,-395.75 1499.26,-395.75 1499.26,-395.75 1617.01,-395.75 1617.01,-395.75 1617.01,-395.75 1647.01,-507.75 1647.01,-507.75 1647.01,-507.75 1678.06,-527.76 1708.29,-547.25"/>
<polygon fill="#d7d4cc" stroke="#d7d4cc" stroke-width="1.35" points="1706.81,-549.29 1714.23,-551.07 1709.54,-545.05 1706.81,-549.29"/>
<text xml:space="preserve" text-anchor="middle" x="1558.13" y="-398.25" font-family="Arial" font-size="10.00" fill="#cac7bf">Reveal declared secrets</text>
</g>
<!-- runtime&#45;&gt;depot -->
<g id="edge15" class="edge">
<title>runtime&#45;&gt;depot</title>
<path fill="none" stroke="#d7d4cc" stroke-width="1.35" d="M1407.92,-405.69C1442.91,-386.31 1487.26,-361.75 1487.26,-361.75 1487.26,-361.75 1499.26,-348.75 1499.26,-348.75 1499.26,-348.75 1569.2,-348.75 1637.31,-348.75"/>
<polygon fill="#d7d4cc" stroke="#d7d4cc" stroke-width="1.35" points="1637.22,-351.27 1644.42,-348.75 1637.22,-346.23 1637.22,-351.27"/>
<text xml:space="preserve" text-anchor="middle" x="1558.13" y="-351.25" font-family="Arial" font-size="10.00" fill="#cac7bf">Remote image build</text>
</g>
<!-- runtime&#45;&gt;cloudflare -->
<g id="edge16" class="edge">
<title>runtime&#45;&gt;cloudflare</title>
<path fill="none" stroke="#70a87b" stroke-width="1.35" d="M1407.92,-405.69C1442.91,-386.31 1487.26,-361.75 1487.26,-361.75 1487.26,-361.75 1499.26,-329.75 1499.26,-329.75 1499.26,-329.75 1613.18,-289.01 1691.83,-260.89"/>
<polygon fill="#70a87b" stroke="#70a87b" stroke-width="1.35" points="1692.42,-263.35 1698.35,-258.56 1690.73,-258.61 1692.42,-263.35"/>
<text xml:space="preserve" text-anchor="middle" x="1558.13" y="-332.25" font-family="Arial" font-size="10.00" fill="#70a87b">Immediate container rollout</text>
</g>
<!-- postgres&#45;&gt;blobs -->
<!-- postgres&#45;&gt;gateway -->
<g id="edge18" class="edge">
<title>postgres&#45;&gt;gateway</title>
<path fill="none" stroke="#70a87b" stroke-width="1.35" d="M1715.84,-794.16C1683.34,-773.66 1647.01,-750.75 1647.01,-750.75 1647.01,-750.75 1554.89,-426.75 1554.89,-426.75 1554.89,-426.75 1554.89,-414.75 1554.89,-414.75 1554.89,-414.75 1647.01,-196.75 1647.01,-196.75 1647.01,-196.75 1684.37,-175.7 1717.21,-157.2"/>
<polygon fill="#70a87b" stroke="#70a87b" stroke-width="1.35" points="1718.19,-159.54 1723.22,-153.81 1715.71,-155.15 1718.19,-159.54"/>
<text xml:space="preserve" text-anchor="middle" x="1558.13" y="-417.25" font-family="Arial" font-size="10.00" fill="#70a87b">Policy and grants</text>
</g>
<!-- blobs&#45;&gt;kms -->
<!-- kms&#45;&gt;oidc -->
<!-- kms&#45;&gt;cloudflare -->
<g id="edge17" class="edge">
<title>kms&#45;&gt;cloudflare</title>
<path fill="none" stroke="#70a87b" stroke-width="1.35" d="M1715.6,-552.16C1649.81,-510.87 1542.89,-443.75 1542.89,-443.75 1542.89,-443.75 1542.89,-431.75 1542.89,-431.75 1542.89,-431.75 1647.01,-301.75 1647.01,-301.75 1647.01,-301.75 1684.37,-280.7 1717.21,-262.2"/>
<polygon fill="#70a87b" stroke="#70a87b" stroke-width="1.35" points="1718.19,-264.54 1723.22,-258.81 1715.71,-260.15 1718.19,-264.54"/>
<text xml:space="preserve" text-anchor="middle" x="1558.13" y="-434.25" font-family="Arial" font-size="10.00" fill="#70a87b">Worker secret bindings</text>
</g>
<!-- oidc&#45;&gt;depot -->
<!-- depot&#45;&gt;cloudflare -->
<!-- cloudflare&#45;&gt;gateway -->
<!-- cli -->
<g id="node1" class="node">
<title>cli</title>
<ellipse fill="#28210f" stroke="#d8aa35" stroke-width="1.4" cx="154.98" cy="-508.75" rx="154.98" ry="31.85"/>
<text xml:space="preserve" text-anchor="start" x="133.61" y="-509.35" font-family="Arial" font-weight="bold" font-size="12.00" fill="#f5f2ea">280 CLI</text>
<text xml:space="preserve" text-anchor="start" x="61.23" y="-499.25" font-family="Arial" font-size="10.00" fill="#f5f2ea">Sync, blob upload, status, and device login</text>
</g>
<!-- dashboard -->
<g id="node2" class="node">
<title>dashboard</title>
<ellipse fill="#28210f" stroke="#d8aa35" stroke-width="1.4" cx="154.98" cy="-385.75" rx="154.45" ry="31.85"/>
<text xml:space="preserve" text-anchor="start" x="85.98" y="-386.35" font-family="Arial" font-weight="bold" font-size="12.00" fill="#f5f2ea">Dashboard and browser</text>
<text xml:space="preserve" text-anchor="start" x="61.61" y="-376.25" font-family="Arial" font-size="10.00" fill="#f5f2ea">OIDC, apps, sharing, secrets, and preview</text>
</g>
<!-- agents -->
<g id="node3" class="node">
<title>agents</title>
<ellipse fill="#28210f" stroke="#d8aa35" stroke-width="1.4" cx="154.98" cy="-262.75" rx="141.73" ry="31.85"/>
<text xml:space="preserve" text-anchor="start" x="134.36" y="-263.35" font-family="Arial" font-weight="bold" font-size="12.00" fill="#f5f2ea">Agents</text>
<text xml:space="preserve" text-anchor="start" x="70.61" y="-253.25" font-family="Arial" font-size="10.00" fill="#f5f2ea">Setup and platform support documents</text>
</g>
<!-- api -->
<g id="node4" class="node">
<title>api</title>
<path fill="#28172a" stroke="#b56baa" stroke-width="1.4" d="M661.9,-408.27C661.9,-408.27 497.47,-408.27 497.47,-408.27 491.47,-408.27 485.47,-402.27 485.47,-396.27 485.47,-396.27 485.47,-375.23 485.47,-375.23 485.47,-369.23 491.47,-363.23 497.47,-363.23 497.47,-363.23 661.9,-363.23 661.9,-363.23 667.9,-363.23 673.9,-369.23 673.9,-375.23 673.9,-375.23 673.9,-396.27 673.9,-396.27 673.9,-402.27 667.9,-408.27 661.9,-408.27"/>
<text xml:space="preserve" text-anchor="start" x="535.06" y="-386.35" font-family="Arial" font-weight="bold" font-size="12.00" fill="#f5f2ea">Hono HTTP API</text>
<text xml:space="preserve" text-anchor="start" x="501.31" y="-376.25" font-family="Arial" font-size="10.00" fill="#f5f2ea">Authenticate, validate, and translate</text>
</g>
<!-- deploy -->
<g id="node5" class="node">
<title>deploy</title>
<path fill="#28172a" stroke="#b56baa" stroke-width="1.4" d="M1072.7,-451.27C1072.7,-451.27 891.02,-451.27 891.02,-451.27 885.02,-451.27 879.02,-445.27 879.02,-439.27 879.02,-439.27 879.02,-418.23 879.02,-418.23 879.02,-412.23 885.02,-406.23 891.02,-406.23 891.02,-406.23 1072.7,-406.23 1072.7,-406.23 1078.7,-406.23 1084.7,-412.23 1084.7,-418.23 1084.7,-418.23 1084.7,-439.27 1084.7,-439.27 1084.7,-445.27 1078.7,-451.27 1072.7,-451.27"/>
<text xml:space="preserve" text-anchor="start" x="939.49" y="-429.35" font-family="Arial" font-weight="bold" font-size="12.00" fill="#f5f2ea">Deploy service</text>
<text xml:space="preserve" text-anchor="start" x="894.86" y="-419.25" font-family="Arial" font-size="10.00" fill="#f5f2ea">Resolve app, preflight, sync, and status</text>
</g>
<!-- auth -->
<g id="node6" class="node">
<title>auth</title>
<path fill="#28172a" stroke="#b56baa" stroke-width="1.4" d="M1080.58,-346.27C1080.58,-346.27 883.15,-346.27 883.15,-346.27 877.15,-346.27 871.15,-340.27 871.15,-334.27 871.15,-334.27 871.15,-313.23 871.15,-313.23 871.15,-307.23 877.15,-301.23 883.15,-301.23 883.15,-301.23 1080.58,-301.23 1080.58,-301.23 1086.58,-301.23 1092.58,-307.23 1092.58,-313.23 1092.58,-313.23 1092.58,-334.27 1092.58,-334.27 1092.58,-340.27 1086.58,-346.27 1080.58,-346.27"/>
<text xml:space="preserve" text-anchor="start" x="904.61" y="-324.35" font-family="Arial" font-weight="bold" font-size="12.00" fill="#f5f2ea">Auth and app management</text>
<text xml:space="preserve" text-anchor="start" x="886.99" y="-314.25" font-family="Arial" font-size="10.00" fill="#f5f2ea">OIDC, device approval, grants, and secrets</text>
</g>
<!-- activator -->
<g id="node7" class="node">
<title>activator</title>
<path fill="#28172a" stroke="#b56baa" stroke-width="1.4" d="M1447.13,-346.27C1447.13,-346.27 1283.45,-346.27 1283.45,-346.27 1277.45,-346.27 1271.45,-340.27 1271.45,-334.27 1271.45,-334.27 1271.45,-313.23 1271.45,-313.23 1271.45,-307.23 1277.45,-301.23 1283.45,-301.23 1283.45,-301.23 1447.13,-301.23 1447.13,-301.23 1453.13,-301.23 1459.13,-307.23 1459.13,-313.23 1459.13,-313.23 1459.13,-334.27 1459.13,-334.27 1459.13,-340.27 1453.13,-346.27 1447.13,-346.27"/>
<text xml:space="preserve" text-anchor="start" x="1316.92" y="-324.35" font-family="Arial" font-weight="bold" font-size="12.00" fill="#f5f2ea">Per app activator</text>
<text xml:space="preserve" text-anchor="start" x="1287.29" y="-314.25" font-family="Arial" font-size="10.00" fill="#f5f2ea">Serialize prepare, rollout, and delete</text>
</g>
<!-- runtime -->
<g id="node8" class="node">
<title>runtime</title>
<path fill="#28172a" stroke="#b56baa" stroke-width="1.4" d="M1457.26,-451.27C1457.26,-451.27 1273.33,-451.27 1273.33,-451.27 1267.33,-451.27 1261.33,-445.27 1261.33,-439.27 1261.33,-439.27 1261.33,-418.23 1261.33,-418.23 1261.33,-412.23 1267.33,-406.23 1273.33,-406.23 1273.33,-406.23 1457.26,-406.23 1457.26,-406.23 1463.26,-406.23 1469.26,-412.23 1469.26,-418.23 1469.26,-418.23 1469.26,-439.27 1469.26,-439.27 1469.26,-445.27 1463.26,-451.27 1457.26,-451.27"/>
<text xml:space="preserve" text-anchor="start" x="1313.92" y="-429.35" font-family="Arial" font-weight="bold" font-size="12.00" fill="#f5f2ea">Container runtime</text>
<text xml:space="preserve" text-anchor="start" x="1277.17" y="-419.25" font-family="Arial" font-size="10.00" fill="#f5f2ea">Build context, policy, and secret delivery</text>
</g>
<!-- postgres -->
<g id="node9" class="node">
<title>postgres</title>
<path fill="#12232c" stroke="#65a9d0" stroke-width="1.4" d="M1866.52,-851.09C1866.52,-854.19 1821.43,-856.72 1765.93,-856.72 1710.42,-856.72 1665.34,-854.19 1665.34,-851.09 1665.34,-851.09 1665.34,-800.41 1665.34,-800.41 1665.34,-797.31 1710.42,-794.78 1765.93,-794.78 1821.43,-794.78 1866.52,-797.31 1866.52,-800.41 1866.52,-800.41 1866.52,-851.09 1866.52,-851.09"/>
<path fill="none" stroke="#65a9d0" stroke-width="1.4" d="M1866.52,-851.09C1866.52,-847.98 1821.43,-845.46 1765.93,-845.46 1710.42,-845.46 1665.34,-847.98 1665.34,-851.09"/>
<text xml:space="preserve" text-anchor="start" x="1723.93" y="-826.35" font-family="Arial" font-weight="bold" font-size="12.00" fill="#f5f2ea">Postgres store</text>
<text xml:space="preserve" text-anchor="start" x="1681.18" y="-816.25" font-family="Arial" font-size="10.00" fill="#f5f2ea">Control state, identity, policy, and audit</text>
</g>
<!-- blobs -->
<g id="node10" class="node">
<title>blobs</title>
<path fill="#12232c" stroke="#65a9d0" stroke-width="1.4" d="M1846.64,-730.09C1846.64,-733.19 1810.47,-735.72 1765.93,-735.72 1721.39,-735.72 1685.21,-733.19 1685.21,-730.09 1685.21,-730.09 1685.21,-679.41 1685.21,-679.41 1685.21,-676.31 1721.39,-673.78 1765.93,-673.78 1810.47,-673.78 1846.64,-676.31 1846.64,-679.41 1846.64,-679.41 1846.64,-730.09 1846.64,-730.09"/>
<path fill="none" stroke="#65a9d0" stroke-width="1.4" d="M1846.64,-730.09C1846.64,-726.98 1810.47,-724.46 1765.93,-724.46 1721.39,-724.46 1685.21,-726.98 1685.21,-730.09"/>
<text xml:space="preserve" text-anchor="start" x="1727.68" y="-705.35" font-family="Arial" font-weight="bold" font-size="12.00" fill="#f5f2ea">R2 blob store</text>
<text xml:space="preserve" text-anchor="start" x="1701.05" y="-695.25" font-family="Arial" font-size="10.00" fill="#f5f2ea">App scoped content by digest</text>
</g>
<!-- kms -->
<g id="node11" class="node">
<title>kms</title>
<path fill="#12232c" stroke="#65a9d0" stroke-width="1.4" d="M1875.52,-609.09C1875.52,-612.19 1826.4,-614.72 1765.93,-614.72 1705.46,-614.72 1656.34,-612.19 1656.34,-609.09 1656.34,-609.09 1656.34,-558.41 1656.34,-558.41 1656.34,-555.31 1705.46,-552.78 1765.93,-552.78 1826.4,-552.78 1875.52,-555.31 1875.52,-558.41 1875.52,-558.41 1875.52,-609.09 1875.52,-609.09"/>
<path fill="none" stroke="#65a9d0" stroke-width="1.4" d="M1875.52,-609.09C1875.52,-605.98 1826.4,-603.46 1765.93,-603.46 1705.46,-603.46 1656.34,-605.98 1656.34,-609.09"/>
<text xml:space="preserve" text-anchor="start" x="1715.3" y="-584.35" font-family="Arial" font-weight="bold" font-size="12.00" fill="#f5f2ea">Secret encryption</text>
<text xml:space="preserve" text-anchor="start" x="1672.18" y="-574.25" font-family="Arial" font-size="10.00" fill="#f5f2ea">Envelope cipher with KMS or local wrapper</text>
</g>
<!-- oidc -->
<g id="node12" class="node">
<title>oidc</title>
<ellipse fill="#12232c" stroke="#65a9d0" stroke-width="1.4" cx="1765.93" cy="-466.75" rx="74.9" ry="26.37"/>
<text xml:space="preserve" text-anchor="start" x="1728.8" y="-463.48" font-family="Arial" font-weight="bold" font-size="12.00" fill="#f5f2ea">Google OIDC</text>
</g>
<!-- depot -->
<g id="node13" class="node">
<title>depot</title>
<ellipse fill="#12232c" stroke="#65a9d0" stroke-width="1.4" cx="1765.93" cy="-348.75" rx="118.92" ry="31.85"/>
<text xml:space="preserve" text-anchor="start" x="1702.93" y="-349.35" font-family="Arial" font-weight="bold" font-size="12.00" fill="#f5f2ea">Depot remote BuildKit</text>
<text xml:space="preserve" text-anchor="start" x="1697.68" y="-339.25" font-family="Arial" font-size="10.00" fill="#f5f2ea">Build and push container image</text>
</g>
<!-- cloudflare -->
<g id="node14" class="node">
<title>cloudflare</title>
<path fill="#17251a" stroke="#70a87b" stroke-width="1.4" d="M1866.14,-257.27C1866.14,-257.27 1665.71,-257.27 1665.71,-257.27 1659.71,-257.27 1653.71,-251.27 1653.71,-245.27 1653.71,-245.27 1653.71,-224.23 1653.71,-224.23 1653.71,-218.23 1659.71,-212.23 1665.71,-212.23 1665.71,-212.23 1866.14,-212.23 1866.14,-212.23 1872.14,-212.23 1878.14,-218.23 1878.14,-224.23 1878.14,-224.23 1878.14,-245.27 1878.14,-245.27 1878.14,-251.27 1872.14,-257.27 1866.14,-257.27"/>
<text xml:space="preserve" text-anchor="start" x="1679.68" y="-235.35" font-family="Arial" font-weight="bold" font-size="12.00" fill="#f5f2ea">Per app Worker and Container</text>
<text xml:space="preserve" text-anchor="start" x="1669.55" y="-225.25" font-family="Arial" font-size="10.00" fill="#f5f2ea">Identity, route gates, egress, and application</text>
</g>
<!-- gateway -->
<g id="node15" class="node">
<title>gateway</title>
<path fill="#17251a" stroke="#70a87b" stroke-width="1.4" d="M1845.52,-152.27C1845.52,-152.27 1686.34,-152.27 1686.34,-152.27 1680.34,-152.27 1674.34,-146.27 1674.34,-140.27 1674.34,-140.27 1674.34,-119.23 1674.34,-119.23 1674.34,-113.23 1680.34,-107.23 1686.34,-107.23 1686.34,-107.23 1845.52,-107.23 1845.52,-107.23 1851.52,-107.23 1857.52,-113.23 1857.52,-119.23 1857.52,-119.23 1857.52,-140.27 1857.52,-140.27 1857.52,-146.27 1851.52,-152.27 1845.52,-152.27"/>
<text xml:space="preserve" text-anchor="start" x="1719.8" y="-130.35" font-family="Arial" font-weight="bold" font-size="12.00" fill="#f5f2ea">Identity gateway</text>
<text xml:space="preserve" text-anchor="start" x="1690.18" y="-120.25" font-family="Arial" font-size="10.00" fill="#f5f2ea">Reads registered policy and grants</text>
</g>
<!-- legend -->
<g id="node16" class="node">
<title>legend</title>
<path fill="#151816" stroke="none" stroke-width="1.4" d="M261.61,-171.5C261.61,-171.5 48.36,-171.5 48.36,-171.5 42.36,-171.5 36.36,-165.5 36.36,-159.5 36.36,-159.5 36.36,-12 36.36,-12 36.36,-6 42.36,0 48.36,0 48.36,0 261.61,0 261.61,0 267.61,0 273.61,-6 273.61,-12 273.61,-12 273.61,-159.5 273.61,-159.5 273.61,-165.5 267.61,-171.5 261.61,-171.5"/>
<polygon fill="#101210" stroke="none" points="36.36,0 36.36,-171.5 273.61,-171.5 273.61,0 36.36,0"/>
<text xml:space="preserve" text-anchor="start" x="44.36" y="-153.1" font-family="Arial" font-weight="bold" font-size="12.00" fill="#f5f2ea">Legend</text>
<polygon fill="#28210f" stroke="none" points="37.36,-114 37.36,-142.25 61.36,-142.25 61.36,-114 37.36,-114"/>
<polygon fill="none" stroke="#d8aa35" points="37.36,-114 37.36,-142.25 61.36,-142.25 61.36,-114 37.36,-114"/>
<text xml:space="preserve" text-anchor="start" x="68.36" y="-123.85" font-family="Arial" font-size="12.00" fill="#f5f2ea">Clients</text>
<polygon fill="#28172a" stroke="none" points="37.36,-85.75 37.36,-114 61.36,-114 61.36,-85.75 37.36,-85.75"/>
<polygon fill="none" stroke="#b56baa" points="37.36,-85.75 37.36,-114 61.36,-114 61.36,-85.75 37.36,-85.75"/>
<text xml:space="preserve" text-anchor="start" x="68.36" y="-95.6" font-family="Arial" font-size="12.00" fill="#f5f2ea">Control plane behavior</text>
<polygon fill="#12232c" stroke="none" points="37.36,-57.5 37.36,-85.75 61.36,-85.75 61.36,-57.5 37.36,-57.5"/>
<polygon fill="none" stroke="#65a9d0" points="37.36,-57.5 37.36,-85.75 61.36,-85.75 61.36,-57.5 37.36,-57.5"/>
<text xml:space="preserve" text-anchor="start" x="68.36" y="-67.35" font-family="Arial" font-size="12.00" fill="#f5f2ea">Platform state and external services</text>
<polygon fill="#17251a" stroke="none" points="37.36,-29.25 37.36,-57.5 61.36,-57.5 61.36,-29.25 37.36,-29.25"/>
<polygon fill="none" stroke="#70a87b" points="37.36,-29.25 37.36,-57.5 61.36,-57.5 61.36,-29.25 37.36,-29.25"/>
<text xml:space="preserve" text-anchor="start" x="68.36" y="-39.1" font-family="Arial" font-size="12.00" fill="#f5f2ea">Application data plane</text>
<polygon fill="none" stroke="#426c84" points="37.36,-1 37.36,-29.25 61.36,-29.25 61.36,-1 37.36,-1"/>
<text xml:space="preserve" text-anchor="start" x="68.36" y="-10.85" font-family="Arial" font-size="12.00" fill="#f5f2ea">Outlined area is the backend process</text>
<polygon fill="none" stroke="#454842" points="36.36,0 36.36,-171.5 273.61,-171.5 273.61,0 36.36,0"/>
</g>
</g>
</svg>
